HIERARCHY
ROOT root
{
	OFFSET 0.000000 0.000000 0.000000
	CHANNELS 6 Xposition Yposition Zposition Zrotation Yrotation Xrotation
	JOINT lhip
	{
		OFFSET 0.058581 -0.082280 -0.017664
		CHANNELS 3 Zrotation Yrotation Xrotation
		JOINT lknee
		{
			OFFSET 0.043451 -0.386469 0.008037
			CHANNELS 3 Zrotation Yrotation Xrotation
			JOINT lankle
			{
				OFFSET -0.014790 -0.426874 -0.037428
				CHANNELS 3 Zrotation Yrotation Xrotation
				JOINT ltoe
				{
					OFFSET 0.041054 -0.060286 0.122042
					CHANNELS 3 Zrotation Yrotation Xrotation
					End Site
					{
						OFFSET 0.000000 0.000000 0.000000
					}
				}
			}
		}
	}
	JOINT rhip
	{
		OFFSET -0.060310 -0.090513 -0.013543
		CHANNELS 3 Zrotation Yrotation Xrotation
		JOINT rknee
		{
			OFFSET -0.043257 -0.383688 -0.004843
			CHANNELS 3 Zrotation Yrotation Xrotation
			JOINT rankle
			{
				OFFSET 0.019056 -0.420046 -0.034562
				CHANNELS 3 Zrotation Yrotation Xrotation
				JOINT rtoe
				{
					OFFSET -0.034840 -0.062106 0.130323
					CHANNELS 3 Zrotation Yrotation Xrotation
					End Site
					{
						OFFSET 0.000000 0.000000 0.000000
					}
				}
			}
		}
	}
	JOINT lowerback
	{
		OFFSET 0.004439 0.124404 -0.038385
		CHANNELS 3 Zrotation Yrotation Xrotation
		JOINT upperback
		{
			OFFSET 0.004488 0.137956 0.026820
			CHANNELS 3 Zrotation Yrotation Xrotation
			JOINT chest
			{
				OFFSET -0.002265 0.056032 0.002855
				CHANNELS 3 Zrotation Yrotation Xrotation
				JOINT lowerneck
				{
					OFFSET -0.013390 0.211636 -0.033468
					CHANNELS 3 Zrotation Yrotation Xrotation
					JOINT upperneck
					{
						OFFSET 0.010113 0.088937 0.050410
						CHANNELS 3 Zrotation Yrotation Xrotation
						End Site
						{
							OFFSET 0.000000 0.000000 0.000000
						}
					}
				}
				JOINT lclavicle
				{
					OFFSET 0.071702 0.114000 -0.018898
					CHANNELS 3 Zrotation Yrotation Xrotation
					JOINT lshoulder
					{
						OFFSET 0.122921 0.045205 -0.019046
						CHANNELS 3 Zrotation Yrotation Xrotation
						JOINT lelbow
						{
							OFFSET 0.255332 -0.015649 -0.022946
							CHANNELS 3 Zrotation Yrotation Xrotation
							JOINT lwrist
							{
								OFFSET 0.265709 0.012698 -0.007375
								CHANNELS 3 Zrotation Yrotation Xrotation
								End Site
								{
									OFFSET 0.000000 0.000000 0.000000
								}
							}
						}
					}
				}
				JOINT rclavicle
				{
					OFFSET -0.082954 0.112472 -0.023707
					CHANNELS 3 Zrotation Yrotation Xrotation
					JOINT rshoulder
					{
						OFFSET -0.113228 0.046853 -0.008472
						CHANNELS 3 Zrotation Yrotation Xrotation
						JOINT relbow
						{
							OFFSET -0.260127 -0.014369 -0.031269
							CHANNELS 3 Zrotation Yrotation Xrotation
							JOINT rwrist
							{
								OFFSET -0.269108 0.006794 -0.006027
								CHANNELS 3 Zrotation Yrotation Xrotation
								End Site
								{
									OFFSET 0.000000 0.000000 0.000000
								}
							}
						}
					}
				}
			}
		}
	}
}
MOTION
Frames: 17
Frame Time: 0.033333
-0.182986 0.148966 0.981028 -2.601019 1.764672 88.657113 11.094785 6.403351 8.658673 -5.691275 7.104611 -4.805843 -1.118803 13.118108 -12.340736 0.000000 -0.000000 0.000000 -7.869854 -4.527821 -0.341429 2.389567 -8.628658 11.654869 4.393291 -8.901586 -10.170239 0.000000 -0.000000 0.000000 2.145457 -1.161331 2.853658 1.656957 -3.158247 9.269932 -1.102584 -3.083234 3.200634 2.988732 3.897138 2.917901 -3.347539 1.205837 28.864995 -28.155842 -0.553101 4.486036 -58.997638 -13.578287 9.929263 12.507588 -19.621973 -5.880108 3.575312 -7.954718 -14.620770 28.547548 2.263381 2.471542 51.300325 10.398631 14.914654 -13.057615 28.669176 -5.329299 3.601791 7.376242 -10.607038 
-0.182108 0.149457 0.980328 -2.310306 1.109005 89.235425 9.944850 6.426322 7.823816 -5.160189 5.698002 -4.817009 -0.078772 14.473967 -11.473236 0.000000 -0.000000 0.000000 -8.796041 -5.005484 -1.237022 2.552292 -8.806803 11.989163 4.581749 -8.560332 -9.339089 0.000000 -0.000000 0.000000 1.817904 -1.565435 1.859938 0.860037 -2.860896 10.611101 -0.816447 -3.510324 1.458606 2.858186 4.016657 3.004089 -2.792286 1.961593 30.092433 -28.535675 -0.379994 5.199057 -58.068893 -14.153362 8.204606 12.214106 -21.470446 -6.674233 1.690038 -8.973496 -10.922760 28.227816 3.412982 4.426567 51.451380 11.549022 13.108011 -11.930535 28.266397 -7.180685 1.364791 7.611833 -7.940665 
-0.182096 0.149647 0.980342 -2.206132 1.070337 89.170687 9.887527 6.322349 7.821661 -5.162044 5.765511 -4.759370 -0.053207 14.418200 -11.498688 0.000000 -0.000000 0.000000 -8.847598 -5.014799 -1.268270 2.522284 -8.892851 12.124677 4.610566 -8.526614 -9.318695 0.000000 -0.000000 0.000000 1.831331 -1.515941 1.783751 0.828400 -2.802964 10.679177 -0.854962 -3.456767 1.357837 2.776662 4.080508 2.938595 -2.850090 1.929118 30.255882 -28.533868 -0.690409 5.136728 -58.199683 -14.696789 8.379337 12.429477 -22.993928 -6.653679 1.734454 -9.112692 -10.870505 28.209359 3.596789 4.570350 51.359061 11.769856 13.094938 -12.022419 28.709478 -7.275602 1.442328 7.691998 -7.884238 
-0.182055 0.150074 0.980410 -2.070938 1.033289 89.044948 9.868304 6.226071 7.864320 -5.179579 5.812410 -4.683629 -0.043557 14.307732 -11.512079 0.000000 -0.000000 0.000000 -8.891876 -5.079499 -1.251533 2.446341 -9.016317 12.342706 4.642178 -8.437342 -9.353123 0.000000 -0.000000 0.000000 1.841525 -1.509468 1.806003 0.784033 -2.753877 10.676321 -0.887041 -3.431484 1.303994 2.673784 4.192064 2.933572 -2.941484 2.008343 30.448557 -28.532176 -0.970325 5.131921 -58.420938 -15.272721 8.647079 12.698356 -25.200986 -6.477476 2.056617 -9.258264 -11.070710 28.157002 3.794383 4.680569 51.237512 12.054704 13.133721 -12.001164 28.995035 -7.171357 1.469088 7.663889 -7.956792 
-0.182036 0.150393 0.980432 -1.992976 1.012512 88.978019 9.862231 6.177811 7.874807 -5.194030 5.827616 -4.637379 -0.044285 14.251314 -11.522760 0.000000 -0.000000 0.000000 -8.899110 -5.108564 -1.245424 2.383326 -9.086308 12.455677 4.649289 -8.408138 -9.372479 0.000000 -0.000000 0.000000 1.829245 -1.525418 1.822332 0.763964 -2.736706 10.660550 -0.901206 -3.425388 1.299707 2.631502 4.269774 2.938343 -2.998876 2.079283 30.539990 -28.515938 -1.110616 5.128242 -58.568129 -15.573168 8.837029 12.768749 -26.463335 -6.233127 2.298274 -9.356055 -11.227898 28.134387 3.890800 4.717354 51.158831 12.237785 13.141603 -11.959224 29.017046 -7.038502 1.458159 7.607826 -7.952988 
-0.182004 0.150784 0.980490 -1.887543 1.001598 88.897277 9.857153 6.116483 7.904549 -5.197636 5.840757 -4.614893 -0.054251 14.182259 -11.522618 0.000000 -0.000000 0.000000 -8.898891 -5.120767 -1.219582 2.321477 -9.195194 12.557292 4.645160 -8.376092 -9.388222 0.000000 -0.000000 0.000000 1.823428 -1.572343 1.836981 0.735175 -2.720835 10.651273 -0.919441 -3.419413 1.280253 2.577460 4.341401 2.994253 -3.039701 2.138447 30.605613 -28.504589 -1.309855 5.174239 -58.706463 -15.929622 9.057419 12.844871 -27.992077 -5.888415 2.522290 -9.478767 -11.338851 28.080542 4.042744 4.797234 51.082612 12.409104 13.134761 -11.921428 28.948254 -6.885211 1.436908 7.547577 -7.986258 
-0.181980 0.151218 0.980540 -1.793445 0.999385 88.844333 9.848825 6.060094 7.915728 -5.188973 5.840924 -4.612623 -0.061543 14.139088 -11.517009 0.000000 -0.000000 0.000000 -8.902924 -5.123686 -1.203082 2.295360 -9.275336 12.618612 4.643352 -8.354108 -9.402000 0.000000 -0.000000 0.000000 1.827753 -1.617564 1.839517 0.699164 -2.713037 10.635946 -0.943346 -3.421626 1.254549 2.531073 4.360183 3.046172 -3.048269 2.149385 30.660816 -28.467939 -1.505116 5.228002 -58.824652 -16.228857 9.273687 12.895872 -29.218106 -5.560826 2.607880 -9.632633 -11.369489 27.999143 4.177391 4.883814 51.046296 12.492676 13.137098 -11.883602 28.804598 -6.733246 1.480979 7.503320 -8.079417 
-0.182002 0.151713 0.980570 -1.729041 0.997798 88.804762 9.845606 6.014693 7.912903 -5.183126 5.848322 -4.599144 -0.061789 14.099176 -11.516352 0.000000 -0.000000 0.000000 -8.899364 -5.118515 -1.198136 2.273941 -9.329095 12.657169 4.634381 -8.342957 -9.421083 0.000000 -0.000000 0.000000 1.823184 -1.659534 1.854321 0.664738 -2.722948 10.616166 -0.976594 -3.428891 1.231278 2.500762 4.378100 3.089780 -3.047876 2.118618 30.645545 -28.419056 -1.667385 5.245433 -58.896641 -16.471302 9.456098 12.885537 -30.042687 -5.242019 2.561925 -9.813031 -11.305509 27.933386 4.265255 4.923186 51.070969 12.525952 13.129818 -11.887208 28.554684 -6.574646 1.744050 7.455960 -8.048545 
-0.182067 0.152246 0.980576 -1.710333 0.994003 88.767306 9.849006 5.982830 7.908524 -5.190324 5.859264 -4.576513 -0.053007 14.082332 -11.516633 0.000000 -0.000000 0.000000 -8.895054 -5.114796 -1.202669 2.260702 -9.346509 12.682829 4.619425 -8.334145 -9.444270 0.000000 -0.000000 0.000000 1.817281 -1.690058 1.872756 0.627557 -2.742115 10.602649 -1.014988 -3.449448 1.226088 2.472630 4.407141 3.125014 -3.070713 2.105434 30.607947 -28.366138 -1.807010 5.252085 -58.911608 -16.659581 9.601703 12.823296 -30.436208 -4.932417 2.425342 -9.946421 -11.200073 27.887913 4.332680 4.942264 51.123892 12.552808 13.148153 -11.840036 28.179984 -6.389809 2.059249 7.359826 -7.984032 
-0.182204 0.153048 0.980561 -1.748581 0.997159 88.747018 9.869899 5.985948 7.865081 -5.201639 5.868603 -4.532262 -0.039793 14.085713 -11.512436 0.000000 -0.000000 0.000000 -8.875540 -5.117312 -1.274918 2.251899 -9.309775 12.741891 4.606696 -8.330181 -9.455627 0.000000 -0.000000 0.000000 1.820340 -1.698703 1.922492 0.590784 -2.774342 10.525089 -1.063519 -3.499693 1.213268 2.409686 4.434227 3.210921 -3.103467 2.117127 30.601340 -28.288057 -1.925246 5.244849 -58.927898 -16.772988 9.747522 12.716252 -30.292638 -4.721961 2.341850 -9.887770 -11.109740 27.857812 4.357176 4.937576 51.218442 12.547518 13.226142 -11.701270 27.582454 -6.109556 2.328649 7.208656 -7.845419 
-0.182360 0.153544 0.980570 -1.777071 1.017262 88.720531 9.887038 5.994099 7.863983 -5.188803 5.857799 -4.515137 -0.025872 14.095296 -11.523941 0.000000 -0.000000 0.000000 -8.836954 -5.095670 -1.327114 2.249688 -9.291572 12.784105 4.579963 -8.338308 -9.472990 0.000000 -0.000000 0.000000 1.808182 -1.706004 1.938731 0.590882 -2.817438 10.510225 -1.078869 -3.534363 1.195485 2.351657 4.477390 3.295651 -3.117758 2.109759 30.593079 -28.207298 -2.037235 5.238812 -58.941562 -16.839705 9.785182 12.620918 -29.610013 -4.733686 2.255601 -9.838001 -10.999294 27.860052 4.368242 4.954787 51.322308 12.508334 13.235434 -11.668491 27.036324 -6.091761 2.394921 7.162082 -7.754383 
-0.182565 0.153992 0.980548 -1.800254 1.039568 88.679458 9.911652 6.002157 7.895577 -5.177086 5.834958 -4.526101 -0.027831 14.119415 -11.525685 0.000000 -0.000000 0.000000 -8.796906 -5.050336 -1.345412 2.254959 -9.251375 12.808973 4.569063 -8.362617 -9.501911 0.000000 -0.000000 0.000000 1.755368 -1.733075 1.899215 0.609101 -2.875167 10.598860 -1.055790 -3.552180 1.197099 2.292424 4.547532 3.354775 -3.131345 2.112272 30.571132 -28.155230 -2.123321 5.223578 -58.921459 -16.891217 9.716218 12.537752 -28.558750 -4.860292 2.011705 -9.874868 -10.772126 27.880707 4.373299 4.980542 51.408777 12.459822 13.203674 -11.644361 26.514041 -6.165774 2.416913 7.148049 -7.623514 
-0.182802 0.154491 0.980491 -1.833234 1.057366 88.628498 9.943307 6.031125 7.934249 -5.167408 5.783231 -4.533954 -0.029542 14.155680 -11.530839 0.000000 -0.000000 0.000000 -8.760957 -5.024814 -1.357531 2.259280 -9.176925 12.843516 4.560703 -8.392361 -9.537374 0.000000 -0.000000 0.000000 1.682993 -1.769361 1.841411 0.634523 -2.946272 10.739726 -1.027402 -3.564848 1.201577 2.223536 4.602335 3.394180 -3.128570 2.161800 30.544030 -28.143659 -2.178912 5.196358 -58.829365 -16.887200 9.594875 12.398044 -27.238958 -5.046492 1.828612 -9.778486 -10.539898 27.918056 4.382142 4.984565 51.483410 12.391096 13.181520 -11.555428 25.962787 -6.249641 2.526665 7.125963 -7.500159 
-0.183014 0.155018 0.980399 -1.893052 1.066133 88.596859 9.961104 6.070781 7.952671 -5.154334 5.731265 -4.536706 -0.026619 14.211349 -11.536554 0.000000 -0.000000 0.000000 -8.735655 -4.977573 -1.401868 2.267001 -9.114326 12.887977 4.546741 -8.426733 -9.563669 0.000000 -0.000000 0.000000 1.631621 -1.792831 1.821485 0.642722 -2.996891 10.796001 -1.014652 -3.594156 1.183654 2.170886 4.676543 3.490245 -3.124487 2.227260 30.511044 -28.127984 -2.187228 5.204374 -58.691616 -16.748595 9.479203 12.236674 -25.774738 -5.220036 1.588712 -9.764229 -10.293042 27.970454 4.370020 4.985731 51.586676 12.268644 13.174194 -11.462759 25.371155 -6.359165 2.648034 7.146867 -7.359592 
-0.183207 0.155471 0.980315 -1.953768 1.075482 88.551678 9.978540 6.117251 7.996476 -5.137289 5.672680 -4.551527 -0.032766 14.278008 -11.535525 0.000000 -0.000000 0.000000 -8.710837 -4.921224 -1.398628 2.285319 -9.049693 12.885380 4.532960 -8.487281 -9.578446 0.000000 -0.000000 0.000000 1.590250 -1.816089 1.805022 0.645292 -3.039354 10.843796 -1.003996 -3.626212 1.176998 2.130722 4.767991 3.616195 -3.124399 2.316695 30.423976 -28.121726 -2.176626 5.222137 -58.515668 -16.541629 9.371692 12.036665 -24.256456 -5.368550 1.362483 -9.703496 -10.055261 28.030538 4.353425 4.966868 51.678717 12.126341 13.189658 -11.323284 24.748078 -6.450452 2.712678 7.130189 -7.249324 
-0.183348 0.155796 0.980241 -1.993906 1.084474 88.490096 9.993960 6.142753 8.058273 -5.117834 5.612506 -4.565377 -0.057804 14.348402 -11.533669 0.000000 -0.000000 0.000000 -8.702225 -4.785156 -1.330431 2.334903 -9.035383 12.826130 4.506853 -8.577724 -9.592652 0.000000 -0.000000 0.000000 1.551831 -1.861302 1.787283 0.643982 -3.070572 10.893643 -0.992563 -3.644303 1.192815 2.103124 4.882169 3.756843 -3.118732 2.374938 30.264304 -28.117492 -2.133871 5.233496 -58.330324 -16.338037 9.213967 11.818743 -22.609443 -5.520510 1.039955 -9.735341 -9.771272 28.098174 4.342276 4.943410 51.773192 11.997715 13.191346 -11.223056 24.067629 -6.526574 2.743735 7.139899 -7.102403 
-0.183612 0.156240 0.980115 -2.126619 1.104875 88.511061 10.036332 6.203716 8.028974 -5.126751 5.608106 -4.558555 -0.072861 14.410393 -11.547294 0.000000 -0.000000 0.000000 -8.656062 -4.849119 -1.445511 2.341142 -8.862590 12.871988 4.507299 -8.551903 -9.633842 0.000000 -0.000000 0.000000 1.515111 -1.801221 1.644204 0.666885 -3.104574 11.012170 -0.997304 -3.644151 1.189999 2.106380 4.999458 3.887703 -3.121681 2.392911 30.101766 -28.092547 -2.048459 5.197433 -58.170830 -16.106241 9.088453 11.602917 -20.959905 -5.730827 0.845719 -9.797465 -9.454236 28.175573 4.315831 4.908054 51.862847 11.904020 13.165271 -11.112774 23.337823 -6.703728 2.655666 7.167807 -6.951309 
